# AST/ASF file generated using VICON BodyLanguage
# -----------------------------------------------
:version 1.10
:name VICON
:units
  mass 1.0
  length 0.45
  angle deg
:documentation
   .ast/.asf automatically generated from VICON data using
   VICON BodyBuilder and BodyLanguage model FoxedUp or BRILLIANT.MOD
:root
   order TX TY TZ RX RY RZ
   axis XYZ
   position 0 0 0  
   orientation 0 0 0 
:bonedata
  begin
     id 1 
     name lhipjoint
     direction 0.710087 -0.641647 0.289942 
     length 2.79038 
     axis 0 0 0  XYZ
  end
  begin
     id 2 
     name lfemur
     direction 0.34202 -0.939693 0  
     length 7.2706  
     axis 0 0 20  XYZ
    dof rx ry rz
    limits (-160.0 20.0)
           (-70.0 70.0)
           (-60.0 70.0)
  end
  begin
     id 3 
     name ltibia
     direction 0.34202 -0.939693 0   
     length 7.86328   
     axis 0 0 20   XYZ
    dof rx
    limits (-10.0 170.0)
  end
  begin
     id 4 
     name lfoot
     direction 0.0541246 -0.148706 0.987399   
     length 2.37542   
     axis -90 7.62852e-016 20   XYZ
    dof rx rz
    limits (-45.0 90.0)
           (-70.0 20.0)
  end
  begin
     id 5 
     name ltoes
     direction 1.53554e-011 -4.21866e-011 1   
     length 1.19593   
     axis -90 7.62852e-016 20   XYZ
    dof rx
    limits (-90.0 20.0)
  end
  begin
     id 6 
     name rhipjoint
     direction -0.675762 -0.671724 0.303533   
     length 2.66544  
     axis 0 0 0  XYZ 
  end
  begin
     id 7 
     name rfemur
     direction -0.34202 -0.939693 0   
     length 8.11844   
     axis 0 0 -20   XYZ
    dof rx ry rz
    limits (-160.0 20.0)
           (-70.0 70.0)
           (-70.0 60.0)
  end
  begin
     id 8 
     name rtibia
     direction -0.34202 -0.939693 0   
     length 7.97082   
     axis 0 0 -20   XYZ
    dof rx
    limits (-10.0 170.0)
 end
 begin
     id 9 
     name rfoot
     direction -0.0726228 -0.199474 0.977208   
     length 2.19677  
     axis -90 -7.62852e-016 -20   XYZ
    dof rx rz
    limits (-45.0 90.0)
           (-20.0 70.0)
  end
  begin
     id 10 
     name rtoes
     direction -1.53508e-011 -4.21913e-011 1   
     length 1.10438   
     axis -90 -7.62852e-016 -20   XYZ
    dof rx
    limits (-90.0 20.0)
  end
  begin
     id 11 
     name lowerback
     direction -0.00404436 0.999673 -0.0252643   
     length 2.03972   
     axis 0 0 0   XYZ
    dof rx ry rz
    limits (-20.0 45.0)
           (-30.0 30.0)
           (-30.0 30.0)
  end
  begin
     id 12 
     name upperback
     direction 0.00744643 0.999969 0.00242763   
     length 2.04273   
     axis 0 0 0   XYZ
    dof rx ry rz
    limits (-20.0 45.0)
           (-30.0 30.0)
           (-30.0 30.0)
  end
  begin
     id 13 
     name thorax
     direction 0.00846113 0.999862 0.0143204   
     length 2.03752   
     axis 0 0 0   XYZ
    dof rx ry rz
    limits (-20.0 45.0)
           (-30.0 30.0)
           (-30.0 30.0)
  end
  begin
     id 14 
     name lowerneck
     direction 0.0328213 0.990857 0.130862   
     length 1.37497   
     axis 0 0 0   XYZ
    dof rx ry rz
    limits (-20.0 45.0)
           (-30.0 30.0)
           (-30.0 30.0)
  end
  begin
     id 15 
     name upperneck
     direction -0.0302832 0.999496 0.00956452   
     length 1.35926   
     axis 0 0 0   XYZ
    dof rx ry rz
    limits (-20.0 45.0)
           (-30.0 30.0)
           (-30.0 30.0)
  end
  begin
     id 16
     name head
     direction -0.0130455 0.999856 -0.0108809  
     length 1.44454  
     axis 0 0 0   XYZ
    dof rx ry rz
    limits (-20.0 45.0)
           (-30.0 30.0)
           (-30.0 30.0)
  end
  begin
     id 17 
     name lclavicle
     direction 0.952957 0.278766 0.119006  
     length 3.10112  
     axis 0 0 0   XYZ
    dof ry rz
    limits (-20.0 10.0)
           (0.0 20.0)
  end
  begin
     id 18 
     name lhumerus
     direction 1 -4.48972e-011 -1.63238e-028   
     length 5.82845   
     axis -180 -30 -90   XYZ
    dof rx ry rz
    limits (-60.0 90.0)
           (-90.0 90.0)
           (-90.0 90.0)
  end
  begin
     id 19
     name lradius
     direction 1 -4.48959e-011 1.45401e-026   
     length 3.49691   
     axis -180 -30 -90   XYZ
    dof rx
    limits (-10.0 170.0)
  end
  begin
     id 20
     name lwrist
     direction 1 -4.48945e-011 2.98015e-026   
     length 1.74845   
     axis -1.7599e-014 90 90   XYZ
    dof ry
    limits (-180.0 0.0)
 end
  begin
     id 21 
     name lhand
     direction 1 -4.4902e-011 5.9603e-026   
     length 0.674998   
     axis -3.80318e-014 90 90   XYZ
    dof rx rz
    limits (-90.0 90.0)
           (-45.0 45.0)
  end
  begin
     id 22 
     name lfingers
     direction 1 -4.48979e-011 1.19206e-025   
     length 0.544201   
     axis -7.60636e-014 90 90   XYZ
    dof rx
    limits (0.0 90.0)
  end
  begin
     id 23
     name lthumb
     direction 0.707107 -6.34941e-011 0.707107   
     length 0.781367   
     axis -90 45 2.85299e-015   XYZ
    dof rx rz
    limits (-45.0 45.0)
           (-45.0 45.0)
  end
  begin
     id 24 
     name rclavicle
     direction -0.967632 0.241887 0.0719654   
     length 3.53012  
     axis 0 0 0   XYZ 
    dof ry rz
    limits (-10.0 20.0)
           (-20.0 0.0)
  end
  begin
     id 25 
     name rhumerus
     direction -1 -4.4897e-011 6.87619e-028  
     length 5.45859   
     axis -180 30 90   XYZ
    dof rx ry rz
    limits (-90.0 60.0)
           (-90.0 90.0)
           (-90.0 90.0)
  end
  begin
     id 26 
     name rradius
     direction -1 -4.48967e-011 1.68055e-026   
     length 3.58491   
     axis -180 30 90   XYZ
    dof rx
    limits (-10.0 170.0)
  end
  begin
     id 27 
     name rwrist
     direction -1 -4.48976e-011 2.98015e-026   
     length 1.79245   
     axis -1.7599e-014 -90 -90   XYZ
    dof ry
    limits (-180.0 0.0)
  end
  begin
     id 28
     name rhand
     direction -1 -4.48996e-011 5.9603e-026   
     length 0.683735   
     axis -3.80318e-014 -90 -90   XYZ
    dof rx rz
    limits (-90.0 90.0)
           (-45.0 45.0)
  end
  begin
     id 29
     name rfingers
     direction -1 -4.48924e-011 1.19206e-025   
     length 0.551245   
     axis -7.60636e-014 -90 -90   XYZ
    dof rx
    limits (0.0 90.0)
  end
  begin
     id 30
     name rthumb
     direction -0.707107 -6.3492e-011 0.707107   
     length 0.791481   
     axis -90 -45 -2.85299e-015   XYZ
    dof rx rz
    limits (-45.0 45.0)
           (-45.0 45.0)
  end
:hierarchy
  begin
    root lhipjoint rhipjoint lowerback
    lhipjoint lfemur
    lfemur ltibia
    ltibia lfoot
    lfoot ltoes
    rhipjoint rfemur
    rfemur rtibia
    rtibia rfoot
    rfoot rtoes
    lowerback upperback
    upperback thorax
    thorax lowerneck lclavicle rclavicle
    lowerneck upperneck
    upperneck head
    lclavicle lhumerus
    lhumerus lradius
    lradius lwrist
    lwrist lhand lthumb
    lhand lfingers
    rclavicle rhumerus
    rhumerus rradius
    rradius rwrist
    rwrist rhand rthumb
    rhand rfingers
  end

#!OML:ASF F:\VICON\USERDATA\INSTALL\rory3\rory3.ASF
:FULLY-SPECIFIED
:DEGREES
482
root 0.925618 17.4943 8.16211 -7.27243 -149.844 9.20018
lowerback 16.3488 0.586576 -0.141643
upperback -0.763589 0.769441 0.725313
thorax -10.0512 0.372509 0.68204
lowerneck -5.09878 -4.51833 -0.548011
upperneck 4.3296 -6.19677 3.1169
head 2.37108 -3.01844 0.856793
rclavicle -1.19619e-013 0
rhumerus -31.2135 30.008 -86.1446
rradius 69.183
rwrist 1.0058
rhand -13.6476 67.0019
rfingers 7.12502
rthumb 12.4689 37.3939
lclavicle -1.19619e-013 0
lhumerus -30.6811 -39.9688 96.3938
lradius 80.7737
lwrist 26.2409
lhand 151.677 -117.615
lfingers 7.12502
lthumb -181.698 -992.358
rfemur -24.297 19.976 23.0138
rtibia 44.8673
rfoot -11.3639 15.5063
rtoes -10.658
lfemur -2.42896 4.71852 -10.8205
ltibia 34.2462
lfoot -21.0356 0.781647
ltoes -11.9553
483
root 0.90184 17.5294 8.23247 -6.98432 -151.193 9.23384
lowerback 16.4523 0.695176 -0.547129
upperback -0.563325 0.830055 0.793027
thorax -9.89726 0.419349 0.971254
lowerneck -5.03995 -4.89836 -0.855433
upperneck 4.44329 -6.69209 3.22439
head 2.42538 -3.26617 0.92378
rclavicle 4.22417e-014 -1.11319e-014
rhumerus -31.9578 29.1803 -86.4548
rradius 68.1136
rwrist 0.545897
rhand -14.4341 65.2494
rfingers 7.12502
rthumb 11.7106 35.5967
lclavicle 4.22417e-014 -1.11319e-014
lhumerus -31.4317 -37.3368 95.8037
lradius 75.7639
lwrist 26.9779
lhand 150.107 -116.825
lfingers 7.12502
lthumb -183.214 -993.131
rfemur -24.6641 19.6329 22.8396
rtibia 43.9689
rfoot -9.72689 17.1106
rtoes -6.67685
lfemur -2.25037 4.99074 -11.0704
ltibia 33.7219
lfoot -20.9999 2.11392
ltoes -12.7904
484
root 0.880186 17.5603 8.29762 -6.66414 -152.58 9.35247
lowerback 16.4828 0.775415 -0.656383
upperback -0.479595 0.898734 0.672881
thorax -9.82338 0.451777 0.886234
lowerneck -5.1644 -5.27568 -1.02107
upperneck 5.02692 -7.23115 3.51689
head 2.67743 -3.52386 1.01298
rclavicle -3.02153e-014 -1.59028e-015
rhumerus -33.6215 27.4067 -87.4401
rradius 67.7224
rwrist -0.658423
rhand -12.8464 63.7199
rfingers 7.12502
rthumb 13.2412 34.1604
lclavicle -3.02153e-014 -1.59028e-015
lhumerus -32.2378 -35.0554 94.7582
lradius 70.9504
lwrist 27.261
lhand 150.35 -117
lfingers 7.12502
lthumb -182.98 -992.959
rfemur -24.986 19.1554 22.8614
rtibia 43.2095
rfoot -8.5477 18.4901
rtoes -5.1942
lfemur -2.05261 5.33911 -11.1946
ltibia 33.0532
lfoot -20.8447 3.14565
ltoes -12.7824
485
root 0.865474 17.5919 8.35979 -6.17208 -154.205 9.40952
lowerback 16.0066 0.890205 -1.17013
upperback -0.415603 0.961034 0.719309
thorax -9.4935 0.50728 1.21706
lowerneck -4.61268 -5.45389 -1.19647
upperneck 5.27913 -7.4861 3.67131
head 2.68241 -3.65588 1.0934
rclavicle 3.27001e-014 3.18055e-015
rhumerus -34.2192 27.4871 -86.5485
rradius 67.7689
rwrist -2.96777
rhand -15.1138 63.2806
rfingers 7.12502
rthumb 11.055 33.5917
lclavicle 3.27001e-014 3.18055e-015
lhumerus -32.9565 -32.6735 93.5839
lradius 65.9871
lwrist 28.0822
lhand 149.6 -116.027
lfingers 7.12502
lthumb -183.704 -993.921
rfemur -25.4306 18.6237 22.941
rtibia 42.6629
rfoot -8.8262 19.3604
rtoes -10.4267
lfemur -1.98803 5.9547 -11.3159
ltibia 32.3669
lfoot -20.588 4.2958
ltoes -13.4217
486
root 0.854216 17.6282 8.41252 -5.62575 -155.403 9.20102
lowerback 15.5364 0.829288 -1.87323
upperback -0.340411 0.751448 0.657036
thorax -9.14659 0.43648 1.60167
lowerneck -4.1808 -5.50033 -0.966316
upperneck 5.51288 -7.56498 3.44826
head 2.66126 -3.70189 0.989003
rclavicle -3.47873e-015 3.65764e-014
rhumerus -34.824 26.7353 -85.6968
rradius 68.1598
rwrist -3.13767
rhand -15.4014 62.261
rfingers 7.12502
rthumb 10.7776 32.5575
lclavicle -3.47873e-015 3.65764e-014
lhumerus -33.5675 -30.4726 92.1916
lradius 61.1407
lwrist 29.2653
lhand 148.491 -113.495
lfingers 7.12502
lthumb -184.775 -996.431
rfemur -25.7032 17.5738 22.8106
rtibia 42.3061
rfoot -8.85946 20.0407
rtoes -10.6748
lfemur -1.96616 6.41726 -11.681
ltibia 31.8304
lfoot -20.6357 4.9026
ltoes -12.1785
487
root 0.847069 17.6521 8.46842 -5.3183 -156.79 9.16314
lowerback 15.3691 0.850411 -1.82127
upperback -0.185224 0.765973 0.437236
thorax -8.87851 0.428939 1.33376
lowerneck -4.26017 -5.63717 -0.793712
upperneck 5.95636 -7.76182 3.18272
head 2.80871 -3.79963 0.858808
rclavicle 6.65929e-015 4.29375e-014
rhumerus -35.1528 25.1055 -84.5537
rradius 68.8834
rwrist -3.22661
rhand -16.3076 62.2646
rfingers 7.12502
rthumb 9.90343 32.5175
lclavicle 6.65929e-015 4.29375e-014
lhumerus -33.8642 -29.0266 90.5733
lradius 56.2672
lwrist 29.9148
lhand 149.096 -114.528
lfingers 7.12502
lthumb -184.19 -995.411
rfemur -25.7315 16.1622 23.0217
rtibia 42.1744
rfoot -10.9645 19.3141
rtoes -14.8002
lfemur -1.81939 6.70129 -11.9019
ltibia 31.4476
lfoot -20.7051 5.63902
ltoes -10.7795
488
root 0.854755 17.669 8.52889 -5.16505 -158.137 9.33064
lowerback 15.3017 0.771525 -2.03697
upperback -0.00266458 0.617673 0.460848
thorax -8.63892 0.35998 1.51661
lowerneck -4.63072 -5.47653 -0.89365
upperneck 6.65564 -7.56675 3.10032
head 3.11263 -3.69859 0.837265
rclavicle 7.55382e-015 4.29375e-014
rhumerus -35.1871 23.4976 -82.9944
rradius 69.8519
rwrist -3.15257
rhand -16.9235 62.1724
rfingers 7.12502
rthumb 9.30918 32.3979
lclavicle 7.55382e-015 4.29375e-014
lhumerus -34.0888 -27.1275 88.9389
lradius 51.2044
lwrist 30.2279
lhand 150.619 -117.834
lfingers 7.12502
lthumb -182.719 -992.128
rfemur -25.5287 14.6026 23.5406
rtibia 42.2376
rfoot -15.3494 16.4029
rtoes -24.8364
lfemur -1.81186 6.96539 -11.8548
ltibia 31.28
lfoot -20.879 6.4855
ltoes -9.76991
489
root 0.868419 17.6737 8.58467 -5.06702 -159.419 9.53831
lowerback 15.1472 0.580824 -2.47418
upperback 0.119921 0.303338 0.656668
thorax -8.40943 0.225396 2.04597
lowerneck -4.77387 -4.99778 -1.31914
upperneck 7.32309 -6.95107 3.33066
head 3.38563 -3.39324 1.00178
rclavicle 3.77691e-015 4.13472e-014
rhumerus -35.1463 21.8288 -81.1836
rradius 70.8737
rwrist -2.61193
rhand -17.9003 61.437
rfingers 7.12502
rthumb 8.36653 31.6227
lclavicle 3.77691e-015 4.13472e-014
lhumerus -34.5023 -24.768 87.3467
lradius 46.6402
lwrist 29.885
lhand 152.672 -119.128
lfingers 7.12502
lthumb -180.737 -990.851
rfemur -25.0542 13.0488 24.0712
rtibia 42.4456
rfoot -18.2942 13.3831
rtoes -27.6674
lfemur -1.90145 7.34187 -11.6913
ltibia 31.3901
lfoot -21.0367 7.09692
ltoes -9.27159
490
root 0.884346 17.6776 8.64184 -5.09781 -160.911 9.84381
lowerback 14.9782 0.488695 -2.48447
upperback 0.401021 0.180805 0.781857
thorax -8.00368 0.153953 2.21232
lowerneck -4.90294 -4.48448 -1.97299
upperneck 7.57504 -6.27859 3.91335
head 3.53319 -3.05624 1.33557
rclavicle -4.65156e-014 2.06736e-014
rhumerus -34.6308 19.4829 -78.8952
rradius 72.1021
rwrist -2.54928
rhand -18.047 61.1747
rfingers 7.12502
rthumb 8.225 31.3548
lclavicle -4.65156e-014 2.06736e-014
lhumerus -34.3585 -22.7696 85.6273
lradius 41.9182
lwrist 29.314
lhand 152.373 -117.457
lfingers 7.12502
lthumb -181.026 -992.52
rfemur -24.456 11.3732 24.7119
rtibia 42.7873
rfoot -19.5193 11.6638
rtoes -26.0055
lfemur -1.89384 7.79843 -11.3972
ltibia 31.6278
lfoot -21.3952 7.8924
ltoes -8.6818
491
root 0.904327 17.6663 8.69748 -5.04406 -162.457 10.0699
lowerback 15.322 0.534433 -2.12318
upperback 0.226268 0.287808 0.641216
thorax -8.38914 0.197022 1.83418
lowerneck -4.86711 -4.35844 -2.06353
upperneck 8.1666 -6.16568 4.08296
head 3.74106 -3.0009 1.41097
rclavicle 4.94974e-014 -2.70347e-014
rhumerus -34.8337 16.5318 -76.7713
rradius 73.5738
rwrist -2.94389
rhand -17.8987 60.9951
rfingers 7.12502
rthumb 8.36806 31.1809
lclavicle 4.94974e-014 -2.70347e-014
lhumerus -34.5871 -21.088 84.0233
lradius 36.9277
lwrist 27.4662
lhand 152.263 -116.192
lfingers 7.12502
lthumb -181.132 -993.785
rfemur -23.9582 10.3249 25.1713
rtibia 43.2741
rfoot -20.853 9.38791
rtoes -25.4735
lfemur -1.96723 8.21181 -11.1725
ltibia 31.924
lfoot -21.777 8.65708
ltoes -7.55091
492
root 0.922057 17.6617 8.74018 -4.99917 -163.823 9.91533
lowerback 15.3577 0.498492 -2.22166
upperback 0.215157 0.210069 0.517386
thorax -8.4176 0.160838 1.77463
lowerneck -5.69672 -4.22722 -2.23633
upperneck 9.37708 -6.03533 4.02862
head 4.3369 -2.93314 1.40888
rclavicle -4.94974e-014 -2.54444e-014
rhumerus -34.6637 13.45 -74.4137
rradius 75.053
rwrist -3.27993
rhand -17.5097 61.3745
rfingers 7.12502
rthumb 8.74349 31.5756
lclavicle -4.94974e-014 -2.54444e-014
lhumerus -34.4566 -18.235 81.9375
lradius 32.0213
lwrist 23.7267
lhand 153.687 -116.256
lfingers 7.12502
lthumb -179.756 -993.724
rfemur -23.3382 8.9393 25.1425
rtibia 43.8668
rfoot -21.3262 7.84358
rtoes -22.5981
lfemur -1.89443 8.83565 -11.2655
ltibia 32.2806
lfoot -22.2643 9.08621
ltoes -6.64418
493
root 0.947635 17.6507 8.77349 -5.06006 -165.042 9.69414
lowerback 15.2715 0.457374 -2.60291
upperback 0.290551 0.0871152 0.525877
thorax -8.28282 0.112673 2.02733
lowerneck -6.12517 -3.91554 -2.14396
upperneck 9.99615 -5.63118 3.77929
head 4.6187 -2.73747 1.32223
rclavicle 8.54774e-015 2.70347e-014
rhumerus -34.4112 10.5833 -71.8613
rradius 76.7099
rwrist -3.63073
rhand -19.3218 60.2969
rfingers 7.12502
rthumb 6.99455 30.4324
lclavicle 8.54774e-015 2.70347e-014
lhumerus -34.3633 -14.5336 79.608
lradius 27.6461
lwrist 19.258
lhand 154.468 -116.514
lfingers 7.12502
lthumb -179.002 -993.463
rfemur -22.4897 8.05552 24.9605
rtibia 44.5768
rfoot -21.8549 5.85029
rtoes -23.9703
lfemur -1.7681 9.41478 -11.3642
ltibia 32.6947
lfoot -22.3947 9.56939
ltoes -7.39626
494
root 0.977901 17.6252 8.81522 -5.05642 -166.24 9.75865
lowerback 15.0262 0.457854 -2.58365
upperback 0.443252 0.100478 0.631296
thorax -7.98051 0.111171 2.12522
lowerneck -6.26735 -3.63443 -1.91993
upperneck 9.90441 -5.24413 3.60807
head 4.58474 -2.54338 1.24622
rclavicle 6.06293e-015 -2.54444e-014
rhumerus -33.8489 7.39899 -69.1179
rradius 78.2335
rwrist -4.21857
rhand -22.2479 56.3012
rfingers 7.12502
rthumb 4.16941 26.3622
lclavicle 6.06293e-015 -2.54444e-014
lhumerus -33.9473 -10.5013 77.0749
lradius 23.8076
lwrist 14.8352
lhand 154.621 -117.376
lfingers 7.12502
lthumb -178.855 -992.601
rfemur -21.8103 7.52315 24.9088
rtibia 45.325
rfoot -21.7324 5.31763
rtoes -21.227
lfemur -1.87358 9.80288 -11.2054
ltibia 33.1357
lfoot -22.5053 10.0827
ltoes -7.25197
495
root 1.01125 17.6131 8.86883 -4.86695 -167.474 9.59368
lowerback 14.813 0.496576 -2.83425
upperback 0.558795 0.121654 0.776326
thorax -7.7389 0.125809 2.41708
lowerneck -6.47265 -3.3025 -1.68444
upperneck 9.7805 -4.76122 3.2442
head 4.54355 -2.30803 1.10798
rclavicle 8.94531e-015 3.33958e-014
rhumerus -32.9876 4.39638 -66.3874
rradius 79.6965
rwrist -4.92459
rhand -20.6069 59.1535
rfingers 7.12502
rthumb 5.75388 29.2516
lclavicle 8.94531e-015 3.33958e-014
lhumerus -33.7513 -7.18095 75.17
lradius 21.4249
lwrist 12.3223
lhand 153.623 -117.141
lfingers 7.12502
lthumb -179.819 -992.839
rfemur -21.3162 7.37173 24.5122
rtibia 46.0955
rfoot -21.5979 4.20894
rtoes -20.673
lfemur -2.1694 10.0524 -11.3566
ltibia 33.6406
lfoot -22.5613 10.7227
ltoes -7.96473
